<?xml version="1.0" encoding="UTF-8"?>
<svg width="980px" height="551px" viewBox="0 0 980 551" version="1.1" xmlns="http://www.w3.org/2000/svg" xmlns:xlink="http://www.w3.org/1999/xlink">
    <title>Cover Logos</title>
    <g id="Cover-Logos" stroke="none" stroke-width="1" fill="none" fill-rule="evenodd" stroke-linejoin="round">
        <g id="small" transform="translate(77.468084, 35.578007)" fill-rule="nonzero" stroke="#FFFFFF" stroke-width="2">
            <g id="Group" transform="translate(238.549993, 21.261049)">
                <g id="Vue-Logo-rounded" transform="translate(27.500000, 24.000000) rotate() translate(-30, -20) ">
                    <svg fill="none" height="512" viewBox="0 0 512 512" width="512" xmlns="http://www.w3.org/2000/svg"><rect fill="#3178c6" height="512" rx="50" width="512"/><rect fill="#3178c6" height="512" rx="50" width="512"/><path clip-rule="evenodd" d="m316.939 407.424v50.061c8.138 4.172 17.763 7.3 28.875 9.386s22.823 3.129 35.135 3.129c11.999 0 23.397-1.147 34.196-3.442 10.799-2.294 20.268-6.075 28.406-11.342 8.138-5.266 14.581-12.15 19.328-20.65s7.121-19.007 7.121-31.522c0-9.074-1.356-17.026-4.069-23.857s-6.625-12.906-11.738-18.225c-5.112-5.319-11.242-10.091-18.389-14.315s-15.207-8.213-24.18-11.967c-6.573-2.712-12.468-5.345-17.685-7.9-5.217-2.556-9.651-5.163-13.303-7.822-3.652-2.66-6.469-5.476-8.451-8.448-1.982-2.973-2.974-6.336-2.974-10.091 0-3.441.887-6.544 2.661-9.308s4.278-5.136 7.512-7.118c3.235-1.981 7.199-3.52 11.894-4.615 4.696-1.095 9.912-1.642 15.651-1.642 4.173 0 8.581.313 13.224.938 4.643.626 9.312 1.591 14.008 2.894 4.695 1.304 9.259 2.947 13.694 4.928 4.434 1.982 8.529 4.276 12.285 6.884v-46.776c-7.616-2.92-15.937-5.084-24.962-6.492s-19.381-2.112-31.066-2.112c-11.895 0-23.163 1.278-33.805 3.833s-20.006 6.544-28.093 11.967c-8.086 5.424-14.476 12.333-19.171 20.729-4.695 8.395-7.043 18.433-7.043 30.114 0 14.914 4.304 27.638 12.912 38.172 8.607 10.533 21.675 19.45 39.204 26.751 6.886 2.816 13.303 5.579 19.25 8.291s11.086 5.528 15.415 8.448c4.33 2.92 7.747 6.101 10.252 9.543 2.504 3.441 3.756 7.352 3.756 11.733 0 3.233-.783 6.231-2.348 8.995s-3.939 5.162-7.121 7.196-7.147 3.624-11.894 4.771c-4.748 1.148-10.303 1.721-16.668 1.721-10.851 0-21.597-1.903-32.24-5.71-10.642-3.806-20.502-9.516-29.579-17.13zm-84.159-123.342h64.22v-41.082h-179v41.082h63.906v182.918h50.874z" fill="#fff" fill-rule="evenodd"/></svg>
                </g>
            </g>
            <g id="Group" transform="translate(5.549993, 395.261049)">
                <g id="Vue-Logo-rounded" transform="translate(27.500000, 24.000000) rotate(16.000000) translate(-27.500000, -24.000000) ">
                    <g id="vue-logo" transform="translate(0.995475, 1.000000)">
                        <path d="M20.9614545,-1 L26.5043367,8.62013792 L32.0474023,-1 L54.7393536,-1 L26.5045249,48.0030335 L-1.73030383,-1 L20.9614545,-1 Z" id="Path" fill="#41B883"></path>
                        <path d="M20.9304082,-1 L26.3957066,8.46673578 L32.0776444,-1 L44.0425478,-1 L26.3791115,29.4952489 L8.7177346,-1 L20.9304082,-1 Z" id="Path" fill="#34495E"></path>
                    </g>
                </g>
            </g>
            <g id="Group" transform="translate(502.549993, 395.261049)">
                <g id="Vue-Logo-rounded" transform="translate(27.500000, 24.000000) rotate(126.000000) translate(-27.500000, -24.000000) ">
                    <g id="vue-logo" transform="translate(0.995475, 1.000000)">
                        <path d="M20.9614545,-1 L26.5043367,8.62013792 L32.0474023,-1 L54.7393536,-1 L26.5045249,48.0030335 L-1.73030383,-1 L20.9614545,-1 Z" id="Path" fill="#41B883"></path>
                        <path d="M20.9304082,-1 L26.3957066,8.46673578 L32.0776444,-1 L44.0425478,-1 L26.3791115,29.4952489 L8.7177346,-1 L20.9304082,-1 Z" id="Path" fill="#34495E"></path>
                    </g>
                </g>
            </g>
            <g id="Group" transform="translate(204.549993, 279.261049)">
                <g id="Vue-Logo-rounded" transform="translate(27.500000, 24.000000) rotate(-27.000000) translate(-27.500000, -24.000000) ">
                    <g id="vue-logo" transform="translate(0.995475, 1.000000)">
                        <path d="M20.9614545,-1 L26.5043367,8.62013792 L32.0474023,-1 L54.7393536,-1 L26.5045249,48.0030335 L-1.73030383,-1 L20.9614545,-1 Z" id="Path" fill="#41B883"></path>
                        <path d="M20.9304082,-1 L26.3957066,8.46673578 L32.0776444,-1 L44.0425478,-1 L26.3791115,29.4952489 L8.7177346,-1 L20.9304082,-1 Z" id="Path" fill="#34495E"></path>
                    </g>
                </g>
            </g>
            <g id="Group" transform="translate(534.549993, 155.261049)">
                <g id="Vue-Logo-rounded" transform="translate(27.500000, 24.000000) rotate(207.000000) translate(-27.500000, -24.000000) ">
                    <g id="vue-logo" transform="translate(0.995475, 1.000000)">
                        <path d="M20.9614545,-1 L26.5043367,8.62013792 L32.0474023,-1 L54.7393536,-1 L26.5045249,48.0030335 L-1.73030383,-1 L20.9614545,-1 Z" id="Path" fill="#41B883"></path>
                        <path d="M20.9304082,-1 L26.3957066,8.46673578 L32.0776444,-1 L44.0425478,-1 L26.3791115,29.4952489 L8.7177346,-1 L20.9304082,-1 Z" id="Path" fill="#34495E"></path>
                    </g>
                </g>
            </g>
            <g id="Group" transform="translate(725.549993, 224.261049)">
                <g id="Vue-Logo-rounded" transform="translate(27.500000, 24.000000) rotate(65.000000) translate(-27.500000, -24.000000) ">
                    <g id="vue-logo" transform="translate(0.995475, 1.000000)">
                        <path d="M20.9614545,-1 L26.5043367,8.62013792 L32.0474023,-1 L54.7393536,-1 L26.5045249,48.0030335 L-1.73030383,-1 L20.9614545,-1 Z" id="Path" fill="#41B883"></path>
                        <path d="M20.9304082,-1 L26.3957066,8.46673578 L32.0776444,-1 L44.0425478,-1 L26.3791115,29.4952489 L8.7177346,-1 L20.9304082,-1 Z" id="Path" fill="#34495E"></path>
                    </g>
                </g>
            </g>
            <g id="Group" transform="translate(793.549993, 8.261049)">
                <g id="Vue-Logo-rounded" transform="translate(27.500000, 24.000000) rotate(-21.000000) translate(-27.500000, -24.000000) ">
                    <g id="vue-logo" transform="translate(0.995475, 1.000000)">
                        <path d="M20.9614545,-1 L26.5043367,8.62013792 L32.0474023,-1 L54.7393536,-1 L26.5045249,48.0030335 L-1.73030383,-1 L20.9614545,-1 Z" id="Path" fill="#41B883"></path>
                        <path d="M20.9304082,-1 L26.3957066,8.46673578 L32.0776444,-1 L44.0425478,-1 L26.3791115,29.4952489 L8.7177346,-1 L20.9304082,-1 Z" id="Path" fill="#34495E"></path>
                    </g>
                </g>
            </g>
        </g>
        <g id="Medium" transform="translate(52.769581, 18.129765)" fill-rule="nonzero" stroke="#FFFFFF" stroke-width="2">
            <g id="Group" transform="translate(11.284210, 216.897426)">
                <g id="Vue-Logo-rounded" transform="translate(40.104167, 35.000000) rotate(26.000000) translate(-40.104167, -35.000000) ">
                    <g id="vue-logo" transform="translate(1.451735, 1.458333)">
                        <path d="M79.0351681,-1 L38.6524321,69.0863668 L-1.73030383,-1 L30.3038994,-1 L38.6521511,13.4890925 L47.0006791,-1 L79.0351681,-1 Z" id="Path" fill="#41B883"></path>
                        <path d="M30.2588853,-1 L38.4860625,13.2507339 L47.0393574,-1 L63.4335734,-1 L38.4695607,42.0994155 L13.5084586,-1 L30.2588853,-1 Z" id="Path" fill="#34495E"></path>
                    </g>
                </g>
            </g>
            <g id="Group" transform="translate(696.268445, 372.193005)">
                <g id="Vue-Logo-rounded" transform="translate(40.104167, 35.000000) rotate(-9.000000) translate(-40.104167, -35.000000) ">
                    <g id="vue-logo" transform="translate(1.451735, 1.458333)">
                        <path d="M79.0351681,-1 L38.6524321,69.0863668 L-1.73030383,-1 L30.3038994,-1 L38.6521511,13.4890925 L47.0006791,-1 L79.0351681,-1 Z" id="Path" fill="#41B883"></path>
                        <path d="M30.2588853,-1 L38.4860625,13.2507339 L47.0393574,-1 L63.4335734,-1 L38.4695607,42.0994155 L13.5084586,-1 L30.2588853,-1 Z" id="Path" fill="#34495E"></path>
                    </g>
                </g>
            </g>
            <g id="Group" transform="translate(455.268445, 18.193005)">
                <g id="Vue-Logo-rounded" transform="translate(40.104167, 35.000000) rotate(-51.000000) translate(-40.104167, -35.000000) ">
                    <g id="vue-logo" transform="translate(1.451735, 1.458333)">
                        <path d="M79.0351681,-1 L38.6524321,69.0863668 L-1.73030383,-1 L30.3038994,-1 L38.6521511,13.4890925 L47.0006791,-1 L79.0351681,-1 Z" id="Path" fill="#41B883"></path>
                        <path d="M30.2588853,-1 L38.4860625,13.2507339 L47.0393574,-1 L63.4335734,-1 L38.4695607,42.0994155 L13.5084586,-1 L30.2588853,-1 Z" id="Path" fill="#34495E"></path>
                    </g>
                </g>
            </g>
        </g>
        <g id="Big" transform="translate(73.336045, 25.957141)" fill-rule="nonzero" stroke="#FFFFFF" stroke-width="2">
            <g id="Group" transform="translate(13.902700, 16.559273)">
                <g id="Vue-Logo-rounded" transform="translate(53.437500, 47.500000) rotate(-22.000000) translate(-53.437500, -47.500000) ">
                    <g id="vue-logo" transform="translate(1.934389, 1.979167)">
                        <path d="M62.8137396,-1 L104.720855,-1 L51.5031109,93.0726115 L-1.71463348,-1 L40.1920981,-1 L51.5027317,18.9940841 L62.8137396,-1 Z" id="Path" fill="#41B883"></path>
                        <path d="M40.1323108,-1 L51.2759386,18.6599273 L62.8612896,-1 L83.9306204,-1 L51.2594571,56.4500634 L18.5921032,-1 L40.1323108,-1 Z" id="Path" fill="#34495E"></path>
                    </g>
                </g>
            </g>
            <g id="Group" transform="translate(333.902700, 179.559273)">
                <g id="Vue-Logo-rounded" transform="translate(53.437500, 47.500000) rotate(-360.000000) translate(-53.437500, -47.500000) ">
                    <g id="vue-logo" transform="translate(1.934389, 1.979167)">
                        <path d="M62.8137396,-1 L104.720855,-1 L51.5031109,93.0726115 L-1.71463348,-1 L40.1920981,-1 L51.5027317,18.9940841 L62.8137396,-1 Z" id="Path" fill="#41B883"></path>
                        <path d="M40.1323108,-1 L51.2759386,18.6599273 L62.8612896,-1 L83.9306204,-1 L51.2594571,56.4500634 L18.5921032,-1 L40.1323108,-1 Z" id="Path" fill="#34495E"></path>
                    </g>
                </g>
            </g>
            <g id="Group" transform="translate(175.643078, 417.335828)">
                <g id="Vue-Logo-rounded" transform="translate(53.437500, 47.500000) rotate(15.000000) translate(-53.437500, -47.500000) ">
                    <g id="vue-logo" transform="translate(1.934389, 1.979167)">
                        <path d="M62.8137396,-1 L104.720855,-1 L51.5031109,93.0726115 L-1.71463348,-1 L40.1920981,-1 L51.5027317,18.9940841 L62.8137396,-1 Z" id="Path" fill="#41B883"></path>
                        <path d="M40.1323108,-1 L51.2759386,18.6599273 L62.8612896,-1 L83.9306204,-1 L51.2594571,56.4500634 L18.5921032,-1 L40.1323108,-1 Z" id="Path" fill="#34495E"></path>
                    </g>
                </g>
            </g>
            <g id="Group" transform="translate(579.496474, 25.092251)">
                <g id="Vue-Logo-rounded" transform="translate(53.437500, 47.500000) rotate(-9.000000) translate(-53.437500, -47.500000) ">
                    <g id="vue-logo" transform="translate(1.934389, 1.979167)">
                        <path d="M62.8137396,-1 L104.720855,-1 L51.5031109,93.0726115 L-1.71463348,-1 L40.1920981,-1 L51.5027317,18.9940841 L62.8137396,-1 Z" id="Path" fill="#41B883"></path>
                        <path d="M40.1323108,-1 L51.2759386,18.6599273 L62.8612896,-1 L83.9306204,-1 L51.2594571,56.4500634 L18.5921032,-1 L40.1323108,-1 Z" id="Path" fill="#34495E"></path>
                    </g>
                </g>
            </g>
        </g>
    </g>
</svg>