<?xml version="1.0" encoding="utf-8"?>
<!-- Generator: Adobe Illustrator 26.1.0, SVG Export Plug-In . SVG Version: 6.00 Build 0)  -->
<svg version="1.1" id="레이어_1" xmlns="http://www.w3.org/2000/svg" xmlns:xlink="http://www.w3.org/1999/xlink" x="0px"
	 y="0px" viewBox="0 0 980 551" style="enable-background:new 0 0 980 551;" xml:space="preserve">
<style type="text/css">
	.st0{fill-rule:evenodd;clip-rule:evenodd;fill:#3178C6;}
	.st1{fill:#3178C6;}
	.st2{fill-rule:evenodd;clip-rule:evenodd;fill:#FFFFFF;}
</style>
<g id="Bottom-Lines" transform="translate(-50.687746, 539.157340)">
	<rect id="Rectangle" x="0.1" y="6.1" class="st0" width="1032" height="99"/>
</g>
<path class="st1" d="M937.9,8.2h23.3c5.8,0,10.6,4.7,10.6,10.6v23.3c0,5.8-4.7,10.6-10.6,10.6h-23.3c-5.8,0-10.6-4.7-10.6-10.6V18.7
	C927.3,12.9,932,8.2,937.9,8.2z"/>
<path class="st2" d="M954.8,43.5v4.3c0.7,0.4,1.6,0.6,2.5,0.8c1,0.2,2,0.3,3,0.3c1,0,2-0.1,3-0.3c1-0.2,1.7-0.5,2.4-1
	c0.7-0.5,1.3-1,1.7-1.8c0.3-0.8,0.6-1.6,0.6-2.8c0-0.8-0.1-1.5-0.4-2.1c-0.2-0.6-0.6-1.1-1-1.6c-0.4-0.5-1-0.9-1.6-1.2
	c-0.6-0.3-1.3-0.7-2.1-1c-0.6-0.2-1-0.5-1.6-0.7c-0.5-0.2-0.8-0.5-1.1-0.7c-0.3-0.2-0.6-0.5-0.7-0.7c-0.2-0.3-0.3-0.5-0.3-0.9
	c0-0.3,0.1-0.6,0.2-0.8c0.2-0.2,0.4-0.4,0.7-0.6c0.3-0.2,0.6-0.3,1-0.4c0.4-0.1,0.9-0.1,1.4-0.1c0.4,0,0.7,0,1.1,0.1
	c0.4,0.1,0.8,0.1,1.2,0.3c0.4,0.1,0.8,0.3,1.2,0.4c0.4,0.2,0.7,0.4,1,0.6v-4.1c-0.7-0.3-1.4-0.4-2.2-0.6c-0.8-0.1-1.7-0.2-2.7-0.2
	c-1,0-2,0.1-3,0.3c-1,0.2-1.7,0.6-2.4,1c-0.7,0.5-1.2,1-1.6,1.8c-0.4,0.7-0.6,1.6-0.6,2.6c0,1.3,0.4,2.4,1.1,3.3
	c0.7,1,1.9,1.7,3.4,2.3c0.6,0.2,1.1,0.5,1.7,0.7s1,0.5,1.3,0.7c0.4,0.3,0.7,0.5,0.9,0.8c0.2,0.3,0.3,0.6,0.3,1
	c0,0.3-0.1,0.5-0.2,0.8c-0.1,0.2-0.3,0.5-0.6,0.6c-0.3,0.2-0.6,0.3-1,0.4c-0.4,0.1-0.9,0.1-1.5,0.1c-1,0-1.9-0.2-2.8-0.5
	c-1-0.3-1.8-0.8-2.6-1.5L954.8,43.5z M947.5,32.8h5.6v-3.6h-15.6v3.6h5.6v15.9h4.4V32.8z"/>
</svg>
